<mxfile host="Electron" agent="Mozilla/5.0 (X11; Linux x86_64) AppleWebKit/537.36 (KHTML, like Gecko) draw.io/24.7.5 Chrome/126.0.6478.183 Electron/31.3.0 Safari/537.36" version="24.7.5">
  <diagram name="Page-1" id="e7e014a7-5840-1c2e-5031-d8a46d1fe8dd">
    <mxGraphModel dx="1702" dy="776" grid="1" gridSize="10" guides="1" tooltips="1" connect="1" arrows="1" fold="1" page="1" pageScale="1" pageWidth="1169" pageHeight="826" background="none" math="0" shadow="0">
      <root>
        <mxCell id="0" />
        <mxCell id="1" parent="0" />
        <mxCell id="DasIFSX_lbMMzxSdeQGG-89" value="USER" style="swimlane;whiteSpace=wrap" vertex="1" parent="1">
          <mxGeometry x="474.5" y="158" width="280" height="682" as="geometry" />
        </mxCell>
        <mxCell id="DasIFSX_lbMMzxSdeQGG-90" style="edgeStyle=orthogonalEdgeStyle;rounded=0;orthogonalLoop=1;jettySize=auto;html=1;" edge="1" parent="DasIFSX_lbMMzxSdeQGG-89" source="DasIFSX_lbMMzxSdeQGG-91" target="DasIFSX_lbMMzxSdeQGG-93">
          <mxGeometry relative="1" as="geometry" />
        </mxCell>
        <mxCell id="DasIFSX_lbMMzxSdeQGG-91" value="" style="ellipse;shape=startState;fillColor=#000000;strokeColor=#ff0000;" vertex="1" parent="DasIFSX_lbMMzxSdeQGG-89">
          <mxGeometry x="125" y="40" width="30" height="30" as="geometry" />
        </mxCell>
        <mxCell id="DasIFSX_lbMMzxSdeQGG-138" style="edgeStyle=orthogonalEdgeStyle;rounded=0;orthogonalLoop=1;jettySize=auto;html=1;" edge="1" parent="DasIFSX_lbMMzxSdeQGG-89" source="DasIFSX_lbMMzxSdeQGG-93" target="DasIFSX_lbMMzxSdeQGG-137">
          <mxGeometry relative="1" as="geometry" />
        </mxCell>
        <mxCell id="DasIFSX_lbMMzxSdeQGG-93" value="Select build to &#xa;delete" style="rounded=1;" vertex="1" parent="DasIFSX_lbMMzxSdeQGG-89">
          <mxGeometry x="85" y="102" width="110" height="50" as="geometry" />
        </mxCell>
        <mxCell id="DasIFSX_lbMMzxSdeQGG-94" style="edgeStyle=orthogonalEdgeStyle;rounded=0;orthogonalLoop=1;jettySize=auto;html=1;" edge="1" parent="DasIFSX_lbMMzxSdeQGG-89" source="DasIFSX_lbMMzxSdeQGG-95">
          <mxGeometry relative="1" as="geometry">
            <mxPoint x="140" y="412" as="targetPoint" />
          </mxGeometry>
        </mxCell>
        <mxCell id="DasIFSX_lbMMzxSdeQGG-96" style="edgeStyle=orthogonalEdgeStyle;rounded=0;orthogonalLoop=1;jettySize=auto;html=1;" edge="1" parent="DasIFSX_lbMMzxSdeQGG-89" source="DasIFSX_lbMMzxSdeQGG-97">
          <mxGeometry relative="1" as="geometry">
            <mxPoint x="140" y="482" as="targetPoint" />
          </mxGeometry>
        </mxCell>
        <mxCell id="DasIFSX_lbMMzxSdeQGG-141" style="edgeStyle=orthogonalEdgeStyle;rounded=0;orthogonalLoop=1;jettySize=auto;html=1;" edge="1" parent="DasIFSX_lbMMzxSdeQGG-89" source="DasIFSX_lbMMzxSdeQGG-101" target="DasIFSX_lbMMzxSdeQGG-140">
          <mxGeometry relative="1" as="geometry" />
        </mxCell>
        <mxCell id="DasIFSX_lbMMzxSdeQGG-142" value="No" style="edgeLabel;html=1;align=center;verticalAlign=middle;resizable=0;points=[];" vertex="1" connectable="0" parent="DasIFSX_lbMMzxSdeQGG-141">
          <mxGeometry x="-0.3494" relative="1" as="geometry">
            <mxPoint as="offset" />
          </mxGeometry>
        </mxCell>
        <mxCell id="DasIFSX_lbMMzxSdeQGG-101" value="Confirm&lt;div&gt;delete?&lt;/div&gt;" style="rhombus;whiteSpace=wrap;html=1;" vertex="1" parent="DasIFSX_lbMMzxSdeQGG-89">
          <mxGeometry x="90" y="272" width="100" height="70" as="geometry" />
        </mxCell>
        <mxCell id="DasIFSX_lbMMzxSdeQGG-139" style="edgeStyle=orthogonalEdgeStyle;rounded=0;orthogonalLoop=1;jettySize=auto;html=1;" edge="1" parent="DasIFSX_lbMMzxSdeQGG-89" source="DasIFSX_lbMMzxSdeQGG-137" target="DasIFSX_lbMMzxSdeQGG-101">
          <mxGeometry relative="1" as="geometry" />
        </mxCell>
        <mxCell id="DasIFSX_lbMMzxSdeQGG-137" value="Press delete &#xa;button" style="rounded=1;" vertex="1" parent="DasIFSX_lbMMzxSdeQGG-89">
          <mxGeometry x="85" y="182" width="110" height="50" as="geometry" />
        </mxCell>
        <mxCell id="DasIFSX_lbMMzxSdeQGG-140" value="" style="ellipse;html=1;shape=endState;fillColor=#000000;strokeColor=#ff0000;" vertex="1" parent="DasIFSX_lbMMzxSdeQGG-89">
          <mxGeometry x="235.5" y="292" width="30" height="30" as="geometry" />
        </mxCell>
        <mxCell id="DasIFSX_lbMMzxSdeQGG-102" value="WEB" style="swimlane;whiteSpace=wrap" vertex="1" parent="1">
          <mxGeometry x="754.5" y="158" width="280" height="682" as="geometry" />
        </mxCell>
        <mxCell id="DasIFSX_lbMMzxSdeQGG-151" style="edgeStyle=orthogonalEdgeStyle;rounded=0;orthogonalLoop=1;jettySize=auto;html=1;" edge="1" parent="DasIFSX_lbMMzxSdeQGG-102" source="DasIFSX_lbMMzxSdeQGG-148" target="DasIFSX_lbMMzxSdeQGG-150">
          <mxGeometry relative="1" as="geometry" />
        </mxCell>
        <mxCell id="DasIFSX_lbMMzxSdeQGG-148" value="Show missing build&#xa;error" style="rounded=1;" vertex="1" parent="DasIFSX_lbMMzxSdeQGG-102">
          <mxGeometry x="85" y="462" width="110" height="50" as="geometry" />
        </mxCell>
        <mxCell id="DasIFSX_lbMMzxSdeQGG-150" value="" style="ellipse;html=1;shape=endState;fillColor=#000000;strokeColor=#ff0000;" vertex="1" parent="DasIFSX_lbMMzxSdeQGG-102">
          <mxGeometry x="125" y="562" width="30" height="30" as="geometry" />
        </mxCell>
        <mxCell id="DasIFSX_lbMMzxSdeQGG-108" value="SERVER" style="swimlane;whiteSpace=wrap;startSize=23;" vertex="1" parent="1">
          <mxGeometry x="1034.5" y="158" width="280" height="682" as="geometry" />
        </mxCell>
        <mxCell id="DasIFSX_lbMMzxSdeQGG-147" style="edgeStyle=orthogonalEdgeStyle;rounded=0;orthogonalLoop=1;jettySize=auto;html=1;" edge="1" parent="DasIFSX_lbMMzxSdeQGG-108" source="DasIFSX_lbMMzxSdeQGG-143" target="DasIFSX_lbMMzxSdeQGG-146">
          <mxGeometry relative="1" as="geometry" />
        </mxCell>
        <mxCell id="DasIFSX_lbMMzxSdeQGG-143" value="Find build in &#xa;database" style="rounded=1;" vertex="1" parent="DasIFSX_lbMMzxSdeQGG-108">
          <mxGeometry x="85" y="362" width="110" height="50" as="geometry" />
        </mxCell>
        <mxCell id="DasIFSX_lbMMzxSdeQGG-155" style="edgeStyle=orthogonalEdgeStyle;rounded=0;orthogonalLoop=1;jettySize=auto;html=1;" edge="1" parent="DasIFSX_lbMMzxSdeQGG-108" source="DasIFSX_lbMMzxSdeQGG-146" target="DasIFSX_lbMMzxSdeQGG-154">
          <mxGeometry relative="1" as="geometry" />
        </mxCell>
        <mxCell id="DasIFSX_lbMMzxSdeQGG-146" value="Build&amp;nbsp;&lt;div&gt;exists?&lt;/div&gt;" style="rhombus;whiteSpace=wrap;html=1;" vertex="1" parent="DasIFSX_lbMMzxSdeQGG-108">
          <mxGeometry x="90" y="452" width="100" height="70" as="geometry" />
        </mxCell>
        <mxCell id="DasIFSX_lbMMzxSdeQGG-157" style="edgeStyle=orthogonalEdgeStyle;rounded=0;orthogonalLoop=1;jettySize=auto;html=1;" edge="1" parent="DasIFSX_lbMMzxSdeQGG-108" source="DasIFSX_lbMMzxSdeQGG-154" target="DasIFSX_lbMMzxSdeQGG-156">
          <mxGeometry relative="1" as="geometry" />
        </mxCell>
        <mxCell id="DasIFSX_lbMMzxSdeQGG-154" value="Delete build&#xa;from database" style="rounded=1;" vertex="1" parent="DasIFSX_lbMMzxSdeQGG-108">
          <mxGeometry x="85" y="552" width="110" height="50" as="geometry" />
        </mxCell>
        <mxCell id="DasIFSX_lbMMzxSdeQGG-156" value="" style="ellipse;html=1;shape=endState;fillColor=#000000;strokeColor=#ff0000;" vertex="1" parent="DasIFSX_lbMMzxSdeQGG-108">
          <mxGeometry x="125" y="638" width="30" height="30" as="geometry" />
        </mxCell>
        <mxCell id="DasIFSX_lbMMzxSdeQGG-144" style="edgeStyle=orthogonalEdgeStyle;rounded=0;orthogonalLoop=1;jettySize=auto;html=1;entryX=0;entryY=0.5;entryDx=0;entryDy=0;exitX=0.5;exitY=1;exitDx=0;exitDy=0;" edge="1" parent="1" source="DasIFSX_lbMMzxSdeQGG-101" target="DasIFSX_lbMMzxSdeQGG-143">
          <mxGeometry relative="1" as="geometry" />
        </mxCell>
        <mxCell id="DasIFSX_lbMMzxSdeQGG-145" value="Yes" style="edgeLabel;html=1;align=center;verticalAlign=middle;resizable=0;points=[];" vertex="1" connectable="0" parent="DasIFSX_lbMMzxSdeQGG-144">
          <mxGeometry x="-0.9443" y="-2" relative="1" as="geometry">
            <mxPoint as="offset" />
          </mxGeometry>
        </mxCell>
        <mxCell id="DasIFSX_lbMMzxSdeQGG-149" style="edgeStyle=orthogonalEdgeStyle;rounded=0;orthogonalLoop=1;jettySize=auto;html=1;" edge="1" parent="1" source="DasIFSX_lbMMzxSdeQGG-146" target="DasIFSX_lbMMzxSdeQGG-148">
          <mxGeometry relative="1" as="geometry" />
        </mxCell>
        <mxCell id="DasIFSX_lbMMzxSdeQGG-153" value="No" style="edgeLabel;html=1;align=center;verticalAlign=middle;resizable=0;points=[];" vertex="1" connectable="0" parent="DasIFSX_lbMMzxSdeQGG-149">
          <mxGeometry x="-0.7387" relative="1" as="geometry">
            <mxPoint as="offset" />
          </mxGeometry>
        </mxCell>
      </root>
    </mxGraphModel>
  </diagram>
</mxfile>
